{"title":"Formula 1 2007 Round 14 Belgium Race","uid":9650218,"size":2198447336,"categoryP":"video","categoryS":"tv_shows","magnet":"?xt=urn:btih:33d544ba9adafe29fea1abd92c53c61f528515f2&amp;dn=Formula+1+2007+Round+14+Belgium+Race&amp;tr=udp%3A%2F%2Ftracker.openbittorrent.com%3A80&amp;tr=udp%3A%2F%2Fopen.demonii.com%3A1337&amp;tr=udp%3A%2F%2Ftracker.coppersurfer.tk%3A6969&amp;tr=udp%3A%2F%2Fexodus.desync.com%3A6969","seeders":1,"leechers":0,"uploader":"totocon","files":1,"time":1393061036,"description":"ITV broadcast\n\nFormat                                   : Matroska\nFormat version                           : Version 4 / Version 2\nFile size                                : 2.05 GiB\nDuration                                 : 2h 31mn\nOverall bit rate mode                    : Variable\nOverall bit rate                         : 1 935 Kbps\nEncoded date                             : UTC 2014-02-22 08:14:39\nWriting application                      : mkvmerge v6.3.0 ('You can't stop me!') built on Jun 27 2013 22:06:07\nWriting library                          : libebml v1.3.0 + libmatroska v1.4.0\n\nVideo\nID                                       : 1\nFormat                                   : MPEG-4 Visual\nFormat profile                           : Advanced Simple@L5\nFormat settings, BVOP                    : Yes\nFormat settings, QPel                    : No\nFormat settings, GMC                     : 3 warppoints\nFormat settings, Matrix                  : Default (H.263)\nCodec ID                                 : V_MS/VFW/FOURCC / XVID\nCodec ID/Hint                            : XviD\nDuration                                 : 2h 31mn\nBit rate                                 : 1 769 Kbps\nWidth                                    : 704 pixels\nHeight                                   : 400 pixels\nDisplay aspect ratio                     : 16:9\nFrame rate mode                          : Constant\nFrame rate                               : 25.000 fps\nColor space                              : YUV\nChroma subsampling                       : 4:2:0\nBit depth                                : 8 bits\nScan type                                : Progressive\nCompression mode                         : Lossy\nBits/(Pixel*Frame)                       : 0.251\nStream size                              : 1.87 GiB (91%)\nWriting library                          : XviD 1.1.2 (UTC 2006-11-01)\nDefault                                  : Yes\nForced                                   : No\n\nAudio\nID                                       : 2\nFormat                                   : MPEG Audio\nFormat version                           : Version 1\nFormat profile                           : Layer 3\nMode                                     : Joint stereo\nMode extension                           : MS Stereo\nCodec ID                                 : A_MPEG/L3\nCodec ID/Hint                            : MP3\nDuration                                 : 2h 28mn\nBit rate mode                            : Variable\nBit rate                                 : 128 Kbps\nChannel(s)                               : 2 channels\nSampling rate                            : 48.0 KHz\nCompression mode                         : Lossy\nStream size                              : 136 MiB (6%)\nWriting library                          : LAME3.90.\nEncoding settings                        : -m j -V 4 -q 2 -lowpass 17.6 --abr 128\nDefault                                  : Yes\nForced                                   : No\n\n","torrent":{"xt":"urn:btih:33d544ba9adafe29fea1abd92c53c61f528515f2","amp;dn":"Formula+1+2007+Round+14+Belgium+Race","amp;tr":["udp%3A%2F%2Ftracker.openbittorrent.com%3A80","udp%3A%2F%2Fopen.demonii.com%3A1337","udp%3A%2F%2Ftracker.coppersurfer.tk%3A6969","udp%3A%2F%2Fexodus.desync.com%3A6969"],"infoHash":"33d544ba9adafe29fea1abd92c53c61f528515f2","infoHashBuffer":{"type":"Buffer","data":[51,213,68,186,154,218,254,41,254,161,171,217,44,83,198,31,82,133,21,242]},"announce":[],"urlList":[]}}